<?xml version="1.0" standalone="no"?>
<!DOCTYPE svg PUBLIC "-//W3C//DTD SVG 20010904//EN"
 "http://www.w3.org/TR/2001/REC-SVG-20010904/DTD/svg10.dtd">
<svg version="1.0" xmlns="http://www.w3.org/2000/svg"
 width="700.000000pt" height="700.000000pt" viewBox="0 0 700.000000 700.000000"
 preserveAspectRatio="xMidYMid meet">
<metadata>
Created by potrace 1.11, written by Peter Selinger 2001-2013
</metadata>
<g transform="translate(0.000000,700.000000) scale(0.100000,-0.100000)"
fill="#000000" stroke="none">
<path d="M3215 6993 c-1013 -40 -1797 -312 -2268 -786 -684 -687 -738 -1834
-150 -3206 481 -1126 1346 -2265 2098 -2764 249 -165 421 -230 605 -230 112 0
186 16 310 68 501 210 1170 869 1727 1705 775 1162 1163 2367 1053 3270 -145
1189 -1086 1853 -2750 1940 -178 9 -446 10 -625 3z m1005 -1061 c61 -38 90
-90 90 -167 0 -44 -42 -229 -161 -708 -89 -356 -159 -650 -156 -653 3 -3 166
27 363 66 245 49 372 71 402 67 113 -13 200 -136 172 -245 -7 -30 -291 -500
-827 -1371 -449 -729 -829 -1345 -844 -1368 -43 -62 -91 -88 -164 -88 -105 0
-184 62 -205 161 -10 46 0 98 164 834 96 431 174 786 173 787 -1 1 -173 -32
-382 -74 -346 -69 -384 -74 -423 -64 -113 31 -183 169 -138 274 7 18 129 203
271 412 387 570 1273 1896 1344 2012 62 102 95 133 159 153 42 14 113 1 162
-28z"/>
<path d="M3294 4153 c-169 -252 -320 -476 -336 -497 -15 -22 -27 -41 -25 -42
2 -2 127 22 280 53 308 62 337 63 406 13 42 -31 74 -82 84 -138 5 -23 -16
-134 -68 -369 -41 -185 -74 -337 -72 -339 1 -1 168 268 371 598 202 329 367
601 365 602 -2 2 -134 -23 -294 -56 -269 -54 -294 -58 -343 -48 -91 20 -161
103 -162 193 0 21 25 137 55 259 31 121 54 223 51 225 -2 2 -143 -202 -312
-454z"/>
</g>
</svg>
